:SAMPLES-PER-SECOND 30
:FRAME-RANGE 1-2775
:FULLY-SPECIFIED
:DEGREES
2515
root  -16.7898 38.0868 -82.6397 -99.6962 -86.8456 102.771
RightUpLeg  2.83663 5.10945 -6.35847
RightLeg  43.8944 10.1597 10.0301
RightFoot  -11.6978 -0.0415266 12.2418
RightToes  1.218e-010 1.26228e-014 -6.01869e-014
Spine  -6.90647 2.59759 1.37483
Spine1  10.9516 3.41079 -4.54226
HEad  30.5031 20.8832 2.45247
LeftShoulder1  0.54551 1.34111 -21.652
LeftArm  -3.82324 12.8492 -49.9394
LeftForeArm  33.6531 7.79892 -12.5962
LeftHand  -0.0139281 6.02355 2.17203
RightShoulder  2.08571 3.47483 24.7038
RightArm  -17.4842 20.1583 57.7763
RightForeArm  67.7265 -5.74294 5.63765
RightHand  0.264507 -6.812 -22.2099
LeftUpLeg  -27.7161 -0.0679007 -6.57603
LeftLeg  17.7708 14.8833 5.40317
LeftFoot  3.15922 -0.155988 1.07573
LeftToes  5.08156e-010 -6.90346e-011 -6.33378e-011
2516
root  -18.2273 38.0755 -82.2861 -83.9978 -86.2704 86.6412
RightUpLeg  -2.67722 4.74612 -8.27348
RightLeg  55.5363 8.62126 12.8719
RightFoot  -2.34991 -1.20294 15.0146
RightToes  1.218e-010 1.26228e-014 -6.01869e-014
Spine  -6.7733 2.51845 0.619757
Spine1  11.106 3.30422 -4.81662
HEad  30.7736 21.2626 1.51062
LeftShoulder1  0.61661 1.03573 -21.0084
LeftArm  -3.52577 8.99049 -50.8247
LeftForeArm  34.6912 7.77521 -12.5529
LeftHand  -0.0176542 6.16261 2.03204
RightShoulder  2.02231 3.27673 24.6594
RightArm  -20.9142 15.3341 56.2893
RightForeArm  69.3436 -5.486 4.45187
RightHand  0.335135 -7.26886 -21.2628
LeftUpLeg  -26.3737 -0.739586 -8.21713
LeftLeg  20.47 14.2345 6.0576
LeftFoot  1.90447 -0.493391 4.14832
LeftToes  5.08156e-010 -6.90346e-011 -6.33378e-011
2517
root  -19.6202 38.1076 -81.9638 -72.2313 -85.0297 74.232
RightUpLeg  -7.77525 5.25618 -9.45932
RightLeg  64.4682 5.20238 11.1935
RightFoot  3.68166 -1.88733 14.436
RightToes  1.218e-010 1.26228e-014 -6.01869e-014
Spine  -6.28184 2.20413 -1.00148
Spine1  10.9538 2.86818 -4.70186
HEad  31.4523 22.2153 0.950023
LeftShoulder1  0.585627 1.13995 -20.8767
LeftArm  -2.41144 4.88431 -51.013
LeftForeArm  34.9606 7.12539 -12.701
LeftHand  -0.0176264 6.12764 2.09304
RightShoulder  1.94705 2.79285 25.9113
RightArm  -23.6703 11.6371 53.7349
RightForeArm  70.9797 -5.2539 3.43808
RightHand  0.386246 -7.64192 -20.451
LeftUpLeg  -24.1746 -2.09099 -9.99738
LeftLeg  22.3781 14.519 6.76436
LeftFoot  -0.749795 -0.454347 4.94759
LeftToes  5.08156e-010 -6.90346e-011 -6.33378e-011
2518
root  -21.0246 38.1804 -81.6517 -62.828 -83.7508 64.329
RightUpLeg  -12.0374 5.57092 -10.3894
RightLeg  70.4932 2.64607 7.51496
RightFoot  1.01738 -1.24272 11.5064
RightToes  1.218e-010 1.26228e-014 -6.01869e-014
Spine  -6.15044 1.79922 -2.45127
Spine1  10.8948 2.27763 -4.44425
HEad  32.0547 23.2068 0.647671
LeftShoulder1  0.552732 1.26472 -20.9211
LeftArm  -2.76567 1.19542 -51.2481
LeftForeArm  36.0577 5.7193 -12.2489
LeftHand  -0.0203479 5.77339 2.50888
RightShoulder  1.82486 2.18664 27.2488
RightArm  -27.1617 8.50464 50.9631
RightForeArm  74.2804 -4.81128 1.58913
RightHand  0.473352 -8.24029 -19.7629
LeftUpLeg  -21.529 -2.4076 -11.6217
LeftLeg  23.1911 13.7087 6.60755
LeftFoot  -3.42787 -0.334807 5.13639
LeftToes  5.08156e-010 -6.90346e-011 -6.33378e-011
2519
root  -22.4543 38.3375 -81.3161 -51.7672 -83.0551 52.7479
RightUpLeg  -15.8961 5.74332 -10.1626
RightLeg  73.0574 1.01647 2.82224
RightFoot  -0.0715689 -0.859821 8.69326
RightToes  1.218e-010 1.26228e-014 -6.01869e-014
Spine  -6.05401 1.40115 -2.76163
Spine1  10.6375 1.65345 -3.98546
HEad  32.3293 24.3492 0.184402
LeftShoulder1  0.572148 1.17715 -20.7051
LeftArm  -2.1466 -1.64906 -51.7455
LeftForeArm  34.935 2.99434 -12.2122
LeftHand  -0.0235327 5.48629 3.3229
RightShoulder  1.68994 1.66766 28.0134
RightArm  -31.3337 4.53424 48.482
RightForeArm  77.9567 -4.22942 -0.929492
RightHand  0.612113 -9.30537 -18.5869
LeftUpLeg  -18.3921 -2.50277 -12.2219
LeftLeg  23.1628 12.775 6.13392
LeftFoot  -5.84133 -0.216497 5.23702
LeftToes  5.08156e-010 -6.90346e-011 -6.33378e-011
2520
root  -23.8803 38.5128 -80.985 -39.6041 -82.1776 40.095
RightUpLeg  -19.2826 5.77974 -9.52186
RightLeg  72.5257 -0.073191 -1.20645
RightFoot  -0.220749 -0.687235 7.03459
RightToes  1.218e-010 1.26228e-014 -6.01869e-014
Spine  -5.83393 0.952148 -2.95219
Spine1  10.1361 0.928344 -3.0655
HEad  32.2048 25.3723 -0.188186
LeftShoulder1  0.645005 0.864132 -20.2106
LeftArm  -2.82095 -4.12871 -52.7819
LeftForeArm  35.0421 0.305156 -11.7177
LeftHand  -0.0356065 5.03349 3.98611
RightShoulder  1.49636 1.04765 28.3939
RightArm  -34.515 -0.0950791 46.2594
RightForeArm  79.3292 -3.84707 -2.80437
RightHand  0.691108 -10.1203 -17.4064
LeftUpLeg  -15.008 -2.74719 -12.3661
LeftLeg  22.5652 11.8149 5.59983
LeftFoot  -7.82669 -0.122419 5.52299
LeftToes  5.08156e-010 -6.90346e-011 -6.33378e-011
